<svg width="865" height="402" viewBox="0 0 865 402" fill="none" xmlns="http://www.w3.org/2000/svg">
<path d="M0 98L175 0L865 2V402H174L0 302V98Z" fill="#FBFBFB"/>
<path d="M855 12H195L348.92 102.871V296H855V12Z" fill="#282C34"/>
<text fill="#50A6B0" xml:space="preserve" style="white-space: pre" font-family="Source Code Pro" font-size="18" font-weight="500" letter-spacing="0em"><tspan x="703.582" y="212.094">maintenance</tspan></text>
<text fill="#92B974" xml:space="preserve" style="white-space: pre" font-family="Source Code Pro" font-size="18" font-weight="500" letter-spacing="0em"><tspan x="671.203" y="189.468">&#34;index.html&#34;</tspan><tspan x="476.93" y="234.72">&#34;The site is under construction&#34;</tspan><tspan x="476.93" y="257.346">&#x201c;Check back soon&#x201d;</tspan></text>
<text fill="#D66972" xml:space="preserve" style="white-space: pre" font-family="Source Code Pro" font-size="18" font-weight="500" letter-spacing="0em"><tspan x="466.137" y="76.338">newFeature&#10;</tspan><tspan x="466.137" y="98.964">maintenance&#10;</tspan><tspan x="455.344" y="189.468">site</tspan><tspan x="574.066" y="189.468">Homepage</tspan><tspan x="455.344" y="212.094">UnderConstructionError</tspan><tspan x="412.172" y="234.72">print</tspan><tspan x="412.172" y="257.346">print</tspan></text>
<text fill="#A5ACB8" xml:space="preserve" style="white-space: pre" font-family="Source Code Pro" font-size="18" font-weight="500" letter-spacing="0em"><tspan x="746.754" y="53.712">{&#10;</tspan><tspan x="369" y="121.59">}&#10;</tspan><tspan x="401.379" y="166.842">{&#10;</tspan><tspan x="369" y="212.094">}</tspan><tspan x="833.098" y="212.094">{&#10;</tspan><tspan x="369" y="279.972">}</tspan></text>
<text fill="#D8B676" xml:space="preserve" style="white-space: pre" font-family="Source Code Pro" font-size="18" font-weight="500" letter-spacing="0em"><tspan x="422.965" y="53.712">UnderConstructionError</tspan></text>
<text fill="#935FA0" xml:space="preserve" style="white-space: pre" font-family="Source Code Pro" font-size="18" font-weight="500" letter-spacing="0em"><tspan x="412.172" y="53.712"> </tspan><tspan x="660.41" y="53.712">: Error </tspan><tspan x="369" y="76.338">    </tspan><tspan x="455.344" y="76.338"> </tspan><tspan x="369" y="98.964">    </tspan><tspan x="455.344" y="98.964"> </tspan><tspan x="369" y="144.216">&#10;</tspan><tspan x="390.586" y="166.842"> </tspan><tspan x="369" y="189.468"> </tspan><tspan x="444.551" y="189.468"> </tspan><tspan x="498.516" y="189.468"> = </tspan><tspan x="563.273" y="189.468"> </tspan><tspan x="660.41" y="189.468">(</tspan><tspan x="800.719" y="189.468">)&#10;</tspan><tspan x="379.793" y="212.094"> </tspan><tspan x="444.551" y="212.094"> </tspan><tspan x="692.789" y="212.094">.</tspan><tspan x="822.305" y="212.094"> </tspan><tspan x="369" y="234.72">    </tspan><tspan x="466.137" y="234.72">(</tspan><tspan x="822.305" y="234.72">)&#10;</tspan><tspan x="369" y="257.346">    </tspan><tspan x="466.137" y="257.346">(</tspan><tspan x="660.41" y="257.346">)&#10;</tspan></text>
<text fill="#C678DD" xml:space="preserve" style="white-space: pre" font-family="Source Code Pro" font-size="18" font-weight="500" letter-spacing="0em"><tspan x="369" y="53.712">enum</tspan><tspan x="412.172" y="76.338">case</tspan><tspan x="412.172" y="98.964">case</tspan><tspan x="369" y="166.842">do</tspan><tspan x="379.793" y="189.468">   let</tspan><tspan x="530.895" y="189.468">try</tspan><tspan x="390.586" y="212.094">catch</tspan></text>
<ellipse cx="268.998" cy="31" rx="8.99781" ry="9" fill="#FF5F56"/>
<ellipse cx="300.998" cy="31" rx="8.99781" ry="9" fill="#FFBD2E"/>
<ellipse cx="332.998" cy="31" rx="8.99781" ry="9" fill="#27C93F"/>
<path d="M174.096 15L336 108.75V296L174 390L12 296V108.75L174.096 15Z" fill="#D8B676"/>
<path d="M139.317 85.313H103.184L75.1801 108.75V173.672L57.1133 193.125V211.875L75.1801 231.328V296.25L103.184 319.687H139.317L111.314 296.25V231.328L93.2469 211.875V193.125L111.314 173.672V108.75L139.317 85.313Z" fill="#313440"/>
<path d="M120.347 117.188L148.351 93.7505L227.845 288.751L199.841 311.251L120.347 117.188Z" fill="#313440"/>
<path d="M208.874 85.3125H245.008L273.011 108.75V173.672L291.078 193.125V211.875L273.011 231.328V296.25L245.008 319.688H208.874L236.878 296.25V231.328L254.944 211.875V193.125L236.878 173.672V108.75L208.874 85.3125Z" fill="#313440"/>
<path d="M336 308H855V390H197L336 308Z" fill="#D8B676"/>
<text fill="#313440" xml:space="preserve" style="white-space: pre" font-family="Source Code Pro" font-size="54" letter-spacing="0em"><tspan x="397.227" y="372.697">Nick Setliff</tspan></text>
</svg>
