<svg width="62" height="71" viewBox="0 0 32 36" fill="none" xmlns="http://www.w3.org/2000/svg">
<path d="M0.655273 9.35091L16.0001 0.65918L31.3449 9.35091V26.6065L16.0001 35.3409L0.655273 26.6065V9.35091Z" fill="white"/>
<path d="M16.0085 2.02246L29.9657 10.0112V25.9673L16.0002 33.9773L2.03467 25.9673V10.0325L16.0085 2.02246Z" fill="#D8B676"/>
<path d="M13.0099 8.01416H9.89492L7.48082 10.0113V15.5435L5.92334 17.2012V18.7989L7.48082 20.4565V25.9887L9.89492 27.9859H13.0099L10.5958 25.9887V20.4565L9.03831 18.7989V17.2012L10.5958 15.5435V10.0113L13.0099 8.01416Z" fill="#444444"/>
<path d="M11.3745 10.7303L13.7886 8.73315L20.6416 25.3497L18.2275 27.267L11.3745 10.7303Z" fill="#444444"/>
<path d="M19.0063 8.01416H22.1213L24.5354 10.0113V15.5435L26.0929 17.2012V18.7989L24.5354 20.4566V25.9888L22.1213 27.986H19.0063L21.4204 25.9888V20.4566L22.9779 18.7989V17.2012L21.4204 15.5435V10.0113L19.0063 8.01416Z" fill="#444444"/>
</svg>
