<?xml version="1.0" standalone="no"?>
<!DOCTYPE svg PUBLIC "-//W3C//DTD SVG 20010904//EN"
 "http://www.w3.org/TR/2001/REC-SVG-20010904/DTD/svg10.dtd">
<svg version="1.0" xmlns="http://www.w3.org/2000/svg"
 width="700.000000pt" height="700.000000pt" viewBox="0 0 700.000000 700.000000"
 preserveAspectRatio="xMidYMid meet">
<metadata>
Created by potrace 1.11, written by Peter Selinger 2001-2013
</metadata>
<g transform="translate(0.000000,700.000000) scale(0.100000,-0.100000)"
fill="#000000" stroke="none">
<path d="M1933 6067 l-1562 -892 0 -1780 0 -1780 1407 -807 1408 -808 314 0
314 0 1408 808 1407 807 0 1780 0 1780 -1563 893 c-860 490 -1565 892 -1567
892 -2 0 -707 -402 -1566 -893z m2992 -209 l1425 -823 -2 -1644 -3 -1644
-1422 -823 -1423 -822 -1422 822 -1423 823 0 1644 0 1643 1420 822 c781 452
1421 823 1423 823 1 1 644 -369 1427 -821z"/>
<path d="M2008 5242 l-248 -207 0 -570 0 -570 -160 -170 -159 -170 -1 -163 0
-163 160 -172 160 -172 0 -570 1 -570 248 -208 248 -207 313 0 c179 0 310 4
308 9 -1 5 -110 98 -240 207 l-238 197 0 571 -1 571 -159 170 -160 170 0 165
0 166 160 171 160 172 0 570 0 569 239 199 c132 109 240 201 240 206 1 4 -140
7 -311 7 l-313 -1 -247 -207z"/>
<path d="M4133 5433 c10 -10 120 -103 245 -208 l227 -190 3 -572 2 -571 155
-166 155 -166 0 -170 0 -169 -155 -166 -155 -165 0 -570 0 -569 -212 -178
c-117 -98 -228 -193 -248 -210 l-35 -32 315 -1 315 0 248 207 247 206 0 571 1
571 159 170 160 170 0 166 0 165 -160 172 -160 171 0 570 0 569 -247 206 -247
206 -315 0 c-300 0 -314 -1 -298 -17z"/>
<path d="M2803 5096 c-190 -157 -242 -205 -239 -221 2 -11 301 -744 665 -1630
797 -1937 721 -1755 730 -1755 13 0 486 386 484 396 -2 12 -1382 3385 -1391
3399 -5 8 -93 -60 -249 -189z"/>
</g>
</svg>
