<svg width="84" height="84" viewBox="0 0 84 84" fill="none" xmlns="http://www.w3.org/2000/svg">
<path fill-rule="evenodd" clip-rule="evenodd" d="M63.9844 0C76.125 0 84 7.875 84 20.0156V63.9844C84 76.125 76.125 84 63.9844 84H20.0156C7.875 84 0 76.125 0 63.9844V20.0156C0 7.875 7.875 0 20.0156 0H63.9844Z" fill="#C12F48"/>
<path fill-rule="evenodd" clip-rule="evenodd" d="M42.1425 41.0419C45.6737 41.0419 48.5363 40.1467 48.5363 39.0424C48.5363 38.2815 47.1773 37.6199 45.1769 37.282C48.0007 37.6496 49.9838 38.5148 49.9838 39.5235C49.9838 40.8657 46.473 41.9537 42.1423 41.9537C37.8115 41.9537 34.3008 40.8657 34.3008 39.5235C34.3008 38.5146 36.2846 37.6492 39.1093 37.2817C37.1083 37.6196 35.7486 38.2813 35.7486 39.0424C35.7486 40.1467 38.6112 41.0419 42.1425 41.0419Z" fill="white"/>
<path fill-rule="evenodd" clip-rule="evenodd" d="M42.1413 39.8366C42.9858 39.8366 49.9828 30.0647 49.9828 25.8433C49.9828 21.622 46.472 18.2 42.1413 18.2C37.8106 18.2 34.2998 21.622 34.2998 25.8433C34.2998 30.0647 41.2968 39.8366 42.1413 39.8366ZM42.101 27.5292C43.7889 27.5292 45.1572 26.1955 45.1572 24.5503C45.1572 22.905 43.7889 21.5713 42.101 21.5713C40.4131 21.5713 39.0448 22.905 39.0448 24.5503C39.0448 26.1955 40.4131 27.5292 42.101 27.5292Z" fill="white"/>
<path d="M41.5789 43.4973C41.5789 43.4973 51.0691 59.3328 44.9568 65.9179C38.8444 72.503 29.1934 65.9179 21.4725 65.9179C13.7517 65.9179 3.57933 76.2769 3.57933 76.2769" stroke="white" stroke-width="2" stroke-linejoin="round" stroke-dasharray="6 4"/>
<path fill-rule="evenodd" clip-rule="evenodd" d="M0.0840507 24.5993H0.0839844V22.75C0.0839844 22.75 32.1582 7 42.125 7C52.0918 7 83.9999 22.75 83.9999 22.75V24.5531C83.9999 24.5531 52.7481 8.33269 42.125 8.33269C31.5109 8.33269 0.136689 24.5721 0.0840507 24.5993ZM9.96748 9.90049C5.57881 9.90049 1.05 13.3 1.05 13.3L0.536621 15.1137C0.536621 15.1137 5.61982 11.4292 9.96748 11.4292C14.3151 11.4292 18.9499 14.1729 18.9499 14.1729L20.6726 13.4674C20.6726 13.4674 14.3562 9.90048 9.96748 9.90049ZM63.5346 13.4676C63.5346 13.4676 70.1791 9.86153 74.1166 9.86152C78.0541 9.86152 82.95 13.65 82.95 13.65L83.3 15.05C83.3 15.05 77.9311 11.3902 74.1166 11.3902C70.3021 11.3902 65.2982 14.1732 65.2982 14.1732L63.5346 13.4676Z" fill="white"/>
</svg>
