<svg width="70" height="86" viewBox="0 0 70 86" fill="none" xmlns="http://www.w3.org/2000/svg">
<path d="M35.9795 59.2691C48.6821 59.2691 61.9517 52.2732 57.9797 36.2825C53.9516 29.2865 61.9517 30.2859 61.9517 24.2894C61.9517 17.2935 56.4133 19.9757 57.9797 13.2958C55.9797 4.30106 48.4132 10.981 46.4132 6.9833C44.4132 2.98563 39.8683 -2.1931 35.9795 0.986793V59.2691Z" fill="#5D922F"/>
<path d="M35.9717 59.2691C23.269 59.2691 9.99951 52.2732 13.9715 36.2825C17.9996 29.2865 9.99951 30.2859 9.99951 24.2894C9.99951 17.2935 15.4115 20.9752 12.4115 12.9798C14.4115 3.98504 19.4116 10.981 22.4116 4.98446C22.4116 0.986788 25.538 -1.01205 35.9717 0.986791V59.2691Z" fill="#689F38"/>
<rect x="34.4131" y="16.9773" width="4.00003" height="25.9849" rx="2" fill="#82C14B"/>
<rect width="1.99903" height="13.9987" rx="0.999516" transform="matrix(0.407688 -0.913121 0.9133 0.407288 22.4385 18.8523)" fill="#82C14B"/>
<rect width="1.99903" height="13.9987" rx="0.999516" transform="matrix(0.407688 -0.913121 0.9133 0.407288 22.4131 26.7981)" fill="#82C14B"/>
<rect width="1.99903" height="13.9987" rx="0.999516" transform="matrix(-0.407688 -0.913121 -0.9133 0.407288 50.0127 18.803)" fill="#82C14B"/>
<rect width="1.99903" height="13.9987" rx="0.999516" transform="matrix(-0.407688 -0.913121 -0.9133 0.407288 50.0381 26.749)" fill="#82C14B"/>
<path fill-rule="evenodd" clip-rule="evenodd" d="M3.95713 18.3708C3.82897 18.0668 3.70941 17.7554 3.59912 17.4371C1.61138 11.6997 3.38418 5.87613 7.55877 4.42983L11.4856 15.7641L11.487 15.7636L27.8552 62.9811L20.296 65.5985L3.92773 18.381L3.95713 18.3708Z" fill="#F2B447"/>
<path fill-rule="evenodd" clip-rule="evenodd" d="M18.4804 13.3409C18.393 13.023 18.2943 12.7047 18.184 12.3866C16.1952 6.64958 11.1986 3.17062 7.02376 4.61616L10.9519 15.9476L10.9516 15.9477L27.3199 63.1651L34.8791 60.5478L18.5109 13.3303L18.4804 13.3409Z" fill="#ECA83D"/>
<ellipse rx="1.99933" ry="5.30897" transform="matrix(0.646779 0.762677 -0.763053 0.646336 17.3446 30.9411)" fill="#E89628"/>
<ellipse rx="1.99933" ry="5.30897" transform="matrix(0.646779 0.762677 -0.763053 0.646336 13.3446 20.9469)" fill="#E89628"/>
<path d="M54.077 20.9878L54 17.9895H49V43.9744H60.0001C60.0001 43.9744 62.0001 33.9802 60.0001 30.9819C58.0001 27.9837 56.1227 23.0589 54.077 20.9878Z" fill="#F2F2F2"/>
<path d="M43.923 20.9878L44 17.9895H49V43.9744H37.9999C37.9999 43.9744 35.9999 33.9802 37.9999 30.9819C39.9999 27.9837 41.8773 23.0589 43.923 20.9878Z" fill="#FAFAFA"/>
<path d="M42 13.9917H49.0001H56.0001V17.9894H49.0001H42V13.9917Z" fill="#3478F7"/>
<path d="M33.9706 17.3336C34.8109 28.3206 37.7997 33.5498 46.1963 37.973L36.6493 37.9781L28.849 20.1406C28.849 20.1406 31.5273 17.3395 32.4011 12.4627C33.834 12.2053 34.4025 12.5335 35.1271 13.7011C34.8888 15.0736 34.6142 15.8736 33.9706 17.3336Z" fill="#F8D607"/>
<path d="M28.8497 20.1396C24.9349 25.3149 25.167 29.3254 28.8497 37.9718L36.6498 37.9779L28.8497 20.1396Z" fill="#FEDA00"/>
<ellipse rx="1.48296" ry="0.398213" transform="matrix(0.924026 0.382329 -0.382714 0.923867 33.8732 12.9278)" fill="#795A1C"/>
<path d="M66.0472 59.6608L69.6456 36.2845C69.8321 35.0729 68.8948 33.9802 67.6689 33.9802H24L50.0002 85.95H67.6689C68.8948 85.95 69.8321 84.8573 69.6456 83.6457L66.0472 60.2694C66.0161 60.0677 66.0161 59.8625 66.0472 59.6608Z" fill="#DFAA79"/>
<path d="M5.95186 59.6608L2.35338 36.2845C2.16688 35.0729 3.10426 33.9802 4.3301 33.9802H23.9988L49.999 85.95H4.3301C3.10426 85.95 2.16688 84.8573 2.35338 83.6457L5.95186 60.2694C5.9829 60.0677 5.9829 59.8625 5.95186 59.6608Z" fill="#E1B27C"/>
</svg>
