<svg width="78" height="87" viewBox="0 0 78 87" fill="none" xmlns="http://www.w3.org/2000/svg">
<path d="M0.126465 21.8773L39 0.147949L77.8736 21.8773V65.0164L39 86.8522L0.126465 65.0164V21.8773Z" fill="white"/>
<path d="M39.0209 3.5564L74.3792 23.5282V63.4186L38.9999 83.4436L3.62061 63.4186V23.5815L39.0209 3.5564Z" fill="#D8B676"/>
<path d="M31.4258 18.5354H23.5345L17.4188 23.5284V37.3588L13.4731 41.503V45.4972L17.4188 49.6414V63.4719L23.5345 68.4648H31.4258L25.31 63.4719V49.6414L21.3644 45.4972V41.503L25.31 37.3588V23.5284L31.4258 18.5354Z" fill="#474A56"/>
<path d="M27.2828 25.3258L33.3986 20.3329L50.7593 61.8742L44.6436 66.6675L27.2828 25.3258Z" fill="#474A56"/>
<path d="M46.6162 18.5352H54.5075L60.6232 23.5281V37.3586L64.5688 41.5027V45.4971L60.6232 49.6413V63.4717L54.5075 68.4647H46.6162L52.7319 63.4717V49.6413L56.6776 45.4971V41.5027L52.7319 37.3586V23.5281L46.6162 18.5352Z" fill="#474A56"/>
</svg>
