<svg width="84" height="84" viewBox="0 0 84 84" fill="none" xmlns="http://www.w3.org/2000/svg">
<g filter="url(#filter0_i)">
<path fill-rule="evenodd" clip-rule="evenodd" d="M63.9844 0C76.125 0 84 7.875 84 20.0156V63.9844C84 76.125 76.125 84 63.9844 84H20.0156C7.875 84 0 76.125 0 63.9844V20.0156C0 7.875 7.875 0 20.0156 0H63.9844Z" fill="#54ADD7"/>
<path fill-rule="evenodd" clip-rule="evenodd" d="M63.9844 0C76.125 0 84 7.875 84 20.0156V63.9844C84 76.125 76.125 84 63.9844 84H20.0156C7.875 84 0 76.125 0 63.9844V20.0156C0 7.875 7.875 0 20.0156 0H63.9844Z" fill="url(#paint0_linear)" style="mix-blend-mode:overlay"/>
<path fill-rule="evenodd" clip-rule="evenodd" d="M63.9844 0C76.125 0 84 7.875 84 20.0156V63.9844C84 76.125 76.125 84 63.9844 84H20.0156C7.875 84 0 76.125 0 63.9844V20.0156C0 7.875 7.875 0 20.0156 0H63.9844Z" fill="url(#paint1_linear)" style="mix-blend-mode:overlay"/>
</g>
<g filter="url(#filter1_dd)">
<path fill-rule="evenodd" clip-rule="evenodd" d="M39.976 33.65L48.4274 9.80005L48.9675 11.9728C48.1241 14.4242 42.3492 40.2744 42.3492 40.2744L39.976 33.65ZM50.9307 58.8913C51.4895 58.6951 52.0818 58.5897 52.6952 58.5897C56.08 58.5897 58.824 61.7999 58.824 65.76C58.824 67.1369 58.4922 68.4232 57.9171 69.5154C57.9955 70.5916 58.9829 72.3692 64.4 72.9473C60.7181 74.4854 57.5211 72.4222 56.3605 71.5072C55.3382 72.401 54.0695 72.9303 52.6952 72.9303C49.3103 72.9303 46.5663 69.72 46.5663 65.76C46.5663 63.5912 47.3893 61.6474 48.6899 60.3326C48.7343 60.1349 48.7345 59.9144 48.6178 59.7196C44.7219 52.9163 43.0165 51.4335 41.0546 49.7278C40.1622 48.9519 39.2167 48.1299 37.9879 46.74L30.1522 11.8759L30.5062 9.88354C31.4984 10.8703 42.7371 44.8028 42.7371 44.8028C42.7371 44.8028 43.2253 49.5556 50.0491 58.589C50.3084 58.7826 50.631 58.8643 50.9307 58.8913ZM52.695 71.5312C55.3061 71.5312 57.4229 69.0257 57.4229 65.9349C57.4229 62.8442 55.3061 60.3386 52.695 60.3386C50.0838 60.3386 47.967 62.8442 47.967 65.9349C47.967 69.0257 50.0838 71.5312 52.695 71.5312ZM39.5624 43.8995C40.3361 43.8995 40.9633 43.2731 40.9633 42.5004C40.9633 41.7277 40.3361 41.1013 39.5624 41.1013C38.7887 41.1013 38.1615 41.7277 38.1615 42.5004C38.1615 43.2731 38.7887 43.8995 39.5624 43.8995ZM32.558 65.7599C32.558 69.7199 29.814 72.9302 26.4291 72.9302C23.0443 72.9302 20.3003 69.7199 20.3003 65.7599C20.3003 61.7998 23.0443 58.5896 26.4291 58.5896C27.0651 58.5896 27.6785 58.7029 28.2553 58.9133C28.5228 58.8846 28.7752 58.8188 28.9182 58.6841C28.9182 58.6841 36.2302 49.1298 36.5093 44.2549C36.8053 47.5121 38.278 48.8062 38.658 49.1298C36.108 49.8172 30.5197 59.3829 30.5197 59.3829C30.3315 59.5726 30.3829 59.9879 30.5058 60.4057C31.765 61.719 32.558 63.6311 32.558 65.7599ZM26.4289 71.531C29.0401 71.531 31.1569 69.0255 31.1569 65.9347C31.1569 62.844 29.0401 60.3384 26.4289 60.3384C23.8178 60.3384 21.701 62.844 21.701 65.9347C21.701 69.0255 23.8178 71.531 26.4289 71.531Z" fill="white"/>
<path fill-rule="evenodd" clip-rule="evenodd" d="M39.976 33.65L48.4274 9.80005L48.9675 11.9728C48.1241 14.4242 42.3492 40.2744 42.3492 40.2744L39.976 33.65ZM50.9307 58.8913C51.4895 58.6951 52.0818 58.5897 52.6952 58.5897C56.08 58.5897 58.824 61.7999 58.824 65.76C58.824 67.1369 58.4922 68.4232 57.9171 69.5154C57.9955 70.5916 58.9829 72.3692 64.4 72.9473C60.7181 74.4854 57.5211 72.4222 56.3605 71.5072C55.3382 72.401 54.0695 72.9303 52.6952 72.9303C49.3103 72.9303 46.5663 69.72 46.5663 65.76C46.5663 63.5912 47.3893 61.6474 48.6899 60.3326C48.7343 60.1349 48.7345 59.9144 48.6178 59.7196C44.7219 52.9163 43.0165 51.4335 41.0546 49.7278C40.1622 48.9519 39.2167 48.1299 37.9879 46.74L30.1522 11.8759L30.5062 9.88354C31.4984 10.8703 42.7371 44.8028 42.7371 44.8028C42.7371 44.8028 43.2253 49.5556 50.0491 58.589C50.3084 58.7826 50.631 58.8643 50.9307 58.8913ZM52.695 71.5312C55.3061 71.5312 57.4229 69.0257 57.4229 65.9349C57.4229 62.8442 55.3061 60.3386 52.695 60.3386C50.0838 60.3386 47.967 62.8442 47.967 65.9349C47.967 69.0257 50.0838 71.5312 52.695 71.5312ZM39.5624 43.8995C40.3361 43.8995 40.9633 43.2731 40.9633 42.5004C40.9633 41.7277 40.3361 41.1013 39.5624 41.1013C38.7887 41.1013 38.1615 41.7277 38.1615 42.5004C38.1615 43.2731 38.7887 43.8995 39.5624 43.8995ZM32.558 65.7599C32.558 69.7199 29.814 72.9302 26.4291 72.9302C23.0443 72.9302 20.3003 69.7199 20.3003 65.7599C20.3003 61.7998 23.0443 58.5896 26.4291 58.5896C27.0651 58.5896 27.6785 58.7029 28.2553 58.9133C28.5228 58.8846 28.7752 58.8188 28.9182 58.6841C28.9182 58.6841 36.2302 49.1298 36.5093 44.2549C36.8053 47.5121 38.278 48.8062 38.658 49.1298C36.108 49.8172 30.5197 59.3829 30.5197 59.3829C30.3315 59.5726 30.3829 59.9879 30.5058 60.4057C31.765 61.719 32.558 63.6311 32.558 65.7599ZM26.4289 71.531C29.0401 71.531 31.1569 69.0255 31.1569 65.9347C31.1569 62.844 29.0401 60.3384 26.4289 60.3384C23.8178 60.3384 21.701 62.844 21.701 65.9347C21.701 69.0255 23.8178 71.531 26.4289 71.531Z" fill="#95C2D7" fill-opacity="0.3"/>
</g>
<defs>
<filter id="filter0_i" x="0" y="-4" width="84" height="88" filterUnits="userSpaceOnUse" color-interpolation-filters="sRGB">
<feFlood flood-opacity="0" result="BackgroundImageFix"/>
<feBlend mode="normal" in="SourceGraphic" in2="BackgroundImageFix" result="shape"/>
<feColorMatrix in="SourceAlpha" type="matrix" values="0 0 0 0 0 0 0 0 0 0 0 0 0 0 0 0 0 0 127 0" result="hardAlpha"/>
<feOffset dy="-4"/>
<feGaussianBlur stdDeviation="5"/>
<feComposite in2="hardAlpha" operator="arithmetic" k2="-1" k3="1"/>
<feColorMatrix type="matrix" values="0 0 0 0 0.584314 0 0 0 0 0.760784 0 0 0 0 0.843137 0 0 0 1 0"/>
<feBlend mode="normal" in2="shape" result="effect1_innerShadow"/>
</filter>
<filter id="filter1_dd" x="12.3003" y="1.80005" width="60.0997" height="79.7002" filterUnits="userSpaceOnUse" color-interpolation-filters="sRGB">
<feFlood flood-opacity="0" result="BackgroundImageFix"/>
<feColorMatrix in="SourceAlpha" type="matrix" values="0 0 0 0 0 0 0 0 0 0 0 0 0 0 0 0 0 0 127 0"/>
<feOffset/>
<feGaussianBlur stdDeviation="4"/>
<feColorMatrix type="matrix" values="0 0 0 0 0 0 0 0 0 0 0 0 0 0 0 0 0 0 0.5 0"/>
<feBlend mode="normal" in2="BackgroundImageFix" result="effect1_dropShadow"/>
<feColorMatrix in="SourceAlpha" type="matrix" values="0 0 0 0 0 0 0 0 0 0 0 0 0 0 0 0 0 0 127 0"/>
<feOffset dx="1" dy="2"/>
<feGaussianBlur stdDeviation="3"/>
<feColorMatrix type="matrix" values="0 0 0 0 0 0 0 0 0 0 0 0 0 0 0 0 0 0 0.6 0"/>
<feBlend mode="normal" in2="effect1_dropShadow" result="effect2_dropShadow"/>
<feBlend mode="normal" in="SourceGraphic" in2="effect2_dropShadow" result="shape"/>
</filter>
<linearGradient id="paint0_linear" x1="-42" y1="42" x2="42" y2="126" gradientUnits="userSpaceOnUse">
<stop stop-color="white" stop-opacity="0.6"/>
<stop offset="1" stop-opacity="0.01"/>
</linearGradient>
<linearGradient id="paint1_linear" x1="-42" y1="42" x2="42" y2="126" gradientUnits="userSpaceOnUse">
<stop stop-color="white" stop-opacity="0.5"/>
<stop offset="1" stop-opacity="0.5"/>
</linearGradient>
</defs>
</svg>
