<?xml version="1.0" standalone="no"?>
<!DOCTYPE svg PUBLIC "-//W3C//DTD SVG 20010904//EN"
 "http://www.w3.org/TR/2001/REC-SVG-20010904/DTD/svg10.dtd">
<svg version="1.0" xmlns="http://www.w3.org/2000/svg"
 width="700.000000pt" height="700.000000pt" viewBox="0 0 700.000000 700.000000"
 preserveAspectRatio="xMidYMid meet">
<metadata>
Created by potrace 1.11, written by Peter Selinger 2001-2013
</metadata>
<g transform="translate(0.000000,700.000000) scale(0.100000,-0.100000)"
fill="#000000" stroke="none">
<path d="M3455 6950 c-44 -27 -93 -57 -110 -66 -48 -26 -1067 -620 -1200 -698
-66 -39 -129 -76 -140 -82 -11 -6 -173 -100 -360 -208 -187 -109 -398 -232
-470 -274 -71 -41 -158 -92 -192 -114 -34 -21 -65 -38 -67 -38 -3 0 -49 -26
-103 -58 -54 -32 -135 -80 -180 -106 -49 -28 -83 -55 -84 -64 -6 -128 0 -3445
7 -3451 11 -11 335 -201 341 -201 3 0 17 -8 31 -19 15 -10 44 -28 65 -40 77
-43 112 -64 542 -316 472 -277 1008 -590 1065 -623 19 -11 212 -124 429 -251
217 -127 397 -231 402 -231 4 0 9 -3 11 -7 2 -5 26 -20 53 -35 l50 -26 90 52
c50 29 221 129 380 223 160 93 490 287 735 430 245 143 551 322 680 398 129
76 251 147 270 158 34 19 278 163 350 206 19 11 44 25 55 31 11 5 41 22 66 37
26 16 119 70 208 122 l160 95 0 1733 c0 1629 -1 1734 -17 1740 -9 4 -75 41
-147 83 -115 68 -1192 696 -1270 740 -16 10 -124 73 -240 140 -115 68 -230
134 -255 148 -25 13 -49 27 -55 32 -8 6 -512 301 -750 438 -33 19 -75 43 -92
53 -18 11 -48 27 -65 38 -18 10 -49 28 -68 39 -19 12 -37 22 -40 21 -3 0 -41
-23 -85 -49z m438 -431 c188 -111 375 -221 414 -245 40 -24 77 -44 83 -44 5 0
10 -4 10 -10 0 -5 4 -10 9 -10 5 0 78 -41 163 -91 84 -50 173 -103 197 -117
25 -14 68 -38 95 -55 175 -103 987 -581 1166 -685 118 -69 220 -129 225 -134
7 -6 10 -555 11 -1606 l0 -1597 -40 -26 c-23 -14 -171 -103 -331 -196 -159
-94 -391 -230 -515 -303 -124 -73 -439 -259 -700 -413 -624 -367 -720 -424
-945 -557 l-190 -112 -35 18 c-19 10 -46 26 -60 35 -22 15 -361 215 -460 271
-84 48 -771 454 -828 489 -35 22 -65 39 -67 39 -2 0 -57 32 -122 71 -65 39
-134 80 -153 91 -19 11 -172 101 -340 201 -168 99 -368 217 -445 262 -77 45
-157 92 -177 105 l-38 22 0 111 c-3 1611 0 3081 7 3088 4 4 35 23 68 42 33 19
272 159 530 312 259 152 486 286 505 297 19 11 47 27 62 36 15 9 139 83 275
163 231 136 622 367 1033 609 96 57 188 111 205 121 16 10 34 18 38 18 4 1
162 -90 350 -200z"/>
<path d="M2270 5428 c-52 -44 -111 -94 -130 -110 -19 -17 -83 -71 -142 -121
l-108 -92 0 -558 c0 -635 11 -556 -93 -667 -29 -30 -88 -95 -133 -145 l-80
-90 0 -162 1 -162 30 -32 c17 -18 39 -42 50 -54 98 -106 201 -220 212 -233 10
-13 12 -142 13 -577 l0 -560 101 -85 c150 -126 164 -137 273 -232 l101 -86
303 0 c260 -1 334 4 293 20 -9 3 -167 136 -351 295 l-106 91 1 559 0 558 -35
40 c-19 21 -42 46 -50 55 -88 95 -198 217 -209 233 -11 15 -14 58 -14 178 l0
158 41 43 c22 24 49 52 59 64 15 17 53 59 198 218 7 7 10 208 10 571 l0 560
30 26 c16 14 41 35 55 47 14 11 36 30 50 42 14 12 47 40 74 63 137 116 256
219 256 223 0 2 -136 4 -302 4 l-303 -1 -95 -81z"/>
<path d="M4262 5422 c131 -111 132 -112 263 -224 l110 -95 0 -559 0 -559 44
-50 c25 -27 65 -72 90 -99 180 -196 171 -183 172 -228 0 -21 0 -72 0 -113 0
-168 0 -171 -22 -196 -11 -13 -60 -66 -108 -119 -48 -52 -108 -117 -132 -143
l-44 -49 0 -560 0 -561 -90 -77 c-49 -42 -157 -134 -238 -203 l-148 -126 307
0 c221 0 310 4 319 12 7 7 21 19 31 27 21 17 270 227 353 299 30 25 60 52 68
59 10 11 13 122 13 573 l0 560 43 46 c82 89 102 111 141 154 22 24 58 64 81
89 l41 45 -1 161 0 161 -153 168 -152 167 0 562 0 561 -238 202 -237 202 -308
0 -308 1 103 -88z"/>
<path d="M2955 5213 c-93 -79 -194 -166 -224 -191 -30 -26 -59 -50 -64 -54
-11 -6 14 -70 544 -1383 133 -330 249 -620 259 -645 9 -25 65 -162 123 -305
58 -143 164 -408 237 -590 73 -181 143 -354 156 -383 l23 -53 138 113 c76 62
171 140 212 173 40 33 84 69 98 80 l25 21 -342 854 c-188 470 -348 869 -355
885 -7 17 -39 95 -70 175 -32 80 -63 159 -71 175 -7 17 -123 306 -258 644
-135 338 -249 617 -253 622 -4 4 -84 -58 -178 -138z"/>
</g>
</svg>
